<svg width="15" height="15" viewBox="0 0 15 15" fill="none" xmlns="http://www.w3.org/2000/svg">
<path fill-rule="evenodd" clip-rule="evenodd" d="M9.01559 4.64959L8.79999 5.82937H9.9993H11.3587C11.9661 5.82937 12.6029 6.16539 13.1251 6.88251C13.6467 7.59871 13.9999 8.63734 13.9999 9.82935C13.9999 11.0214 13.6467 12.06 13.1251 12.7762C12.6029 13.4933 11.9661 13.8293 11.3587 13.8293H4.99993V13.8293V5.82933V4.82933H4.95953L6.24071 1.84556C6.4304 1.51501 6.81293 1.22718 7.31793 1.08541C7.84023 0.938788 8.35456 0.988507 8.70358 1.17456C9.28932 1.48681 9.39787 1.76478 9.43478 1.95007C9.49181 2.23637 9.43097 2.57744 9.30402 3.14529L9.3023 3.15299C9.27029 3.29617 9.2345 3.45626 9.20458 3.61552L9.20457 3.61552L9.20368 3.62039L9.01559 4.64959ZM3.33331 5.82933H0.999939V13.8293H3.33331V5.82937V5.82933ZM3.33331 14.8293H0.999939C0.447655 14.8293 -6.10352e-05 14.3816 -6.10352e-05 13.8293V5.82933C-6.10352e-05 5.27705 0.447654 4.82933 0.999939 4.82933H3.87125L5.34107 1.40623C6.02147 0.129851 7.93391 -0.368947 9.174 0.292116C10.7757 1.14593 10.5144 2.31477 10.2799 3.36346L10.2799 3.36349L10.2799 3.36356C10.2467 3.51191 10.2141 3.65786 10.1874 3.80016L10.1821 3.82937L9.9993 4.82937H11.0159H11.3587C13.3697 4.82937 14.9999 7.06793 14.9999 9.82935C14.9999 12.5908 13.3697 14.8293 11.3587 14.8293H4.33331H3.33331V14.8293Z" fill="#545E79"/>
</svg>
