<svg width="16" height="17" viewBox="0 0 16 17" fill="none" xmlns="http://www.w3.org/2000/svg">
<path fill-rule="evenodd" clip-rule="evenodd" d="M8.11614 0.102284C7.93714 -0.0340947 7.68909 -0.0340947 7.5101 0.102284L0.590875 5.37407C0.218503 5.65778 -6.10352e-05 6.09908 -6.10352e-05 6.56722V15.3585C-6.10352e-05 16.2013 0.748534 16.7872 1.54468 16.7872H14.0816C14.8777 16.7872 15.6263 16.2013 15.6263 15.3585V6.56722C15.6263 6.09908 15.4077 5.65779 15.0354 5.37407L8.11614 0.102284ZM1.19692 6.1695L7.81312 1.12859L14.4293 6.16951C14.5534 6.26408 14.6263 6.41117 14.6263 6.56722V15.3585C14.6263 15.5415 14.4394 15.7872 14.0816 15.7872H11.2909C11.3376 15.6716 11.3633 15.5453 11.3633 15.4129V9.05502C11.3633 8.50273 10.9156 8.05502 10.3633 8.05502H4.93404C4.38175 8.05502 3.93404 8.50273 3.93404 9.05502V15.4129C3.93404 15.5453 3.95974 15.6716 4.00642 15.7872H1.54468C1.18684 15.7872 0.999939 15.5415 0.999939 15.3585V6.56722C0.999939 6.41117 1.07279 6.26408 1.19692 6.1695ZM4.93404 9.05502H10.3633L10.3633 15.4129L4.93404 15.4129V9.05502Z" fill="#545E79"/>
</svg>
