<svg width="18" height="20" viewBox="0 0 18 20" fill="none" xmlns="http://www.w3.org/2000/svg">
<path d="M6.23047 7H4.2002C3.08009 7 2.51962 7 2.0918 7.21799C1.71547 7.40973 1.40973 7.71547 1.21799 8.0918C1 8.51962 1 9.08009 1 10.2002V15.8002C1 16.9203 1 17.4801 1.21799 17.9079C1.40973 18.2842 1.71547 18.5905 2.0918 18.7822C2.5192 19 3.07902 19 4.19694 19H13.8031C14.921 19 15.48 19 15.9074 18.7822C16.2837 18.5905 16.5905 18.2842 16.7822 17.9079C17 17.4805 17 16.9215 17 15.8036V10.1969C17 9.07899 17 8.5192 16.7822 8.0918C16.5905 7.71547 16.2837 7.40973 15.9074 7.21799C15.4796 7 14.9203 7 13.8002 7H11.7689M6.23047 7H11.7689M6.23047 7C6.10302 7 6 6.89668 6 6.76923V4C6 2.34315 7.34315 1 9 1C10.6569 1 12 2.34315 12 4V6.76923C12 6.89668 11.8964 7 11.7689 7" stroke="#545E79" stroke-width="2" stroke-linecap="round" stroke-linejoin="round"/>
</svg>
