<svg width="18" height="18" viewBox="0 0 18 18" fill="none" xmlns="http://www.w3.org/2000/svg">
<path d="M9 6L6 9M6 9L9 12M6 9L17 9M12 13.7514V13.7998C12 14.9199 12 15.4804 11.782 15.9082C11.5903 16.2845 11.2845 16.5903 10.9082 16.782C10.4804 17 9.91991 17 8.7998 17H4.1998C3.0797 17 2.52043 17 2.09261 16.782C1.71628 16.5903 1.40952 16.2845 1.21777 15.9082C1 15.4808 1 14.921 1 13.8031L1 4.19642C1 3.07851 1 2.51952 1.21777 2.09212C1.40952 1.71579 1.71628 1.40952 2.09261 1.21777C2.52001 1 3.079 1 4.19691 1H8.80309C9.92101 1 10.4808 1 10.9082 1.21777C11.2845 1.40952 11.5903 1.71609 11.782 2.09241C12 2.52023 12 3.0799 12 4.2V4.25" stroke="#F2F4F8" stroke-width="2" stroke-linecap="round" stroke-linejoin="round"/>
</svg>
