<svg width="18" height="20" viewBox="0 0 18 20" fill="none" xmlns="http://www.w3.org/2000/svg">
<path d="M12 14.9999V15.9999C12 17.6567 10.6569 18.9999 9 18.9999C7.34315 18.9999 6 17.6567 6 15.9999V14.9999M12 14.9999H6M12 14.9999H15.5905C15.973 14.9999 16.1652 14.9999 16.3201 14.9476C16.616 14.8478 16.8475 14.6155 16.9473 14.3197C16.9997 14.1642 16.9997 13.9714 16.9997 13.5858C16.9997 13.4171 16.9995 13.3328 16.9863 13.2523C16.9614 13.1003 16.9024 12.9562 16.8126 12.8311C16.7651 12.765 16.7048 12.7046 16.5858 12.5857L16.1963 12.1962C16.0706 12.0705 16 11.9 16 11.7223V7.99988C16 4.13388 12.866 0.999868 9 0.999878C5.13401 0.999887 2 4.13389 2 7.99988V11.7223C2 11.9 1.92924 12.0705 1.80357 12.1962L1.41406 12.5857C1.29476 12.705 1.23504 12.7649 1.1875 12.8311C1.09766 12.9563 1.03815 13.1003 1.0132 13.2523C1 13.3328 1 13.4171 1 13.5858C1 13.9714 1 14.1641 1.05245 14.3196C1.15225 14.6155 1.3848 14.8478 1.68066 14.9476C1.83556 14.9999 2.02701 14.9999 2.40956 14.9999H6M6 7.99988H12" stroke="#F2F4F8" stroke-width="2" stroke-linecap="round" stroke-linejoin="round"/>
</svg>
