<svg width="15" height="15" viewBox="0 0 15 15" fill="none" xmlns="http://www.w3.org/2000/svg">
<path d="M3.94737 15C3.94737 13.256 5.36121 11.8421 7.10526 11.8421V11.0526C5.19557 11.0526 3.6026 9.69647 3.23686 7.89474H2.36842C1.06038 7.89474 0 6.83432 0 5.52632V1.57893L1.57895 1.57894C2.18555 1.57894 2.73888 1.80698 3.1579 2.18202L3.15789 0H11.8421V2.18202C12.2612 1.80699 12.8144 1.57894 13.4211 1.57894H15V5.52632C15 6.8344 13.9397 7.89474 12.6316 7.89474H11.7632C11.3974 9.69647 9.80447 11.0526 7.89474 11.0526V11.8421C9.63876 11.8421 11.0526 13.256 11.0526 15H3.94737ZM7.89474 12.6316H7.10526C6.07404 12.6316 5.19674 13.2906 4.87161 14.2105H10.1284C9.80321 13.2906 8.92595 12.6316 7.89474 12.6316ZM11.0526 0.789482H3.94737V7.10526C3.94737 8.84929 5.36121 10.2632 7.10526 10.2632H7.89474C9.63876 10.2632 11.0526 8.84929 11.0526 7.10526V0.789482ZM14.2105 5.52632V2.36843H13.4211C12.549 2.36843 11.8421 3.07534 11.8421 3.94737V7.10526H12.6316C13.5036 7.10526 14.2105 6.39837 14.2105 5.52632ZM0.789482 5.52632C0.789482 6.39837 1.4964 7.10526 2.36843 7.10526H3.15789L3.15791 3.94737C3.1579 3.07534 2.45099 2.36843 1.57896 2.36843H0.789482V5.52632Z" fill="#545E79"/>
</svg>
