<svg width="19" height="19" viewBox="0 0 19 19" fill="none" xmlns="http://www.w3.org/2000/svg">
<path d="M11.8985 14.4184V15.3137C11.8985 16.7973 10.6958 17.9999 9.21232 17.9999C7.72881 17.9999 6.52618 16.7973 6.52618 15.3137V14.4184M11.8985 14.4184H6.52618M11.8985 14.4184H15.1133C15.4558 14.4184 15.6279 14.4184 15.7666 14.3716C16.0315 14.2822 16.2388 14.0742 16.3282 13.8093C16.3751 13.6701 16.3751 13.4974 16.3751 13.1522C16.3751 13.0012 16.375 12.9256 16.3631 12.8536C16.3408 12.7175 16.288 12.5885 16.2075 12.4765C16.165 12.4173 16.111 12.3632 16.0045 12.2568L15.6557 11.908C15.5432 11.7954 15.48 11.6428 15.48 11.4837V8.15069C15.48 4.68914 12.6739 1.88301 9.21232 1.88302C5.75079 1.88303 2.94466 4.68915 2.94466 8.15069V11.4837C2.94466 11.6428 2.8813 11.7954 2.76877 11.908L2.42002 12.2567C2.31321 12.3635 2.25972 12.4172 2.21716 12.4765C2.13671 12.5885 2.08343 12.7175 2.06109 12.8536C2.04927 12.9256 2.04927 13.0012 2.04927 13.1522C2.04927 13.4975 2.04927 13.67 2.09624 13.8093C2.1856 14.0742 2.39382 14.2822 2.65873 14.3716C2.79742 14.4184 2.96884 14.4184 3.31136 14.4184H6.52618M14.6012 0.999878C15.8361 1.93046 16.809 3.16499 17.4251 4.58325M3.82389 0.999878C2.58897 1.93046 1.61609 3.16499 1 4.58325" stroke="#F2F4F8" stroke-width="2" stroke-linecap="round" stroke-linejoin="round"/>
</svg>
